<svg width="106" height="28" viewBox="0 0 106 28" fill="none" xmlns="http://www.w3.org/2000/svg">
<path d="M53.4691 26.7159C47.7345 26.7159 42.639 26.73 37.9116 26.73C35.5479 26.73 34.2901 26.8793 32.7018 25.4105C31.5489 24.3439 31.0383 22.5563 31.0383 20.1859V8.57413C31.0383 6.03563 31.6126 4.19146 32.7613 3.04159C33.91 1.89173 35.7489 1.31575 38.2782 1.31365H53.4723V6.3985H38.6729C37.2255 6.3985 36.5019 7.12371 36.5019 8.57413L36.375 20.0586C36.3564 20.3016 36.3905 20.5458 36.4749 20.7744C36.5592 21.0029 36.6919 21.2105 36.8637 21.3828C37.0356 21.5552 37.2425 21.6882 37.4705 21.7728C37.6984 21.8574 37.9419 21.8916 38.1842 21.873C40.9567 21.873 46.2198 21.818 48.5929 21.818V15.8487H42.2537V11.4865H53.4691V26.7159Z" fill="#1154FF"/>
<path d="M54.3009 1.32622H68.7729C71.1371 1.32622 72.8737 1.8645 73.9827 2.94106C75.0917 4.01761 75.6468 5.65654 75.6478 7.85782C75.6478 9.30929 75.3345 10.4885 74.708 11.3954C74.1457 12.2503 73.3386 12.9145 72.3928 13.3008C74.3456 13.8339 75.6724 15.1398 76.3731 17.2185C76.6281 18.0652 76.7501 18.9465 76.7349 19.8309C76.7349 22.2028 76.1799 23.9449 75.0698 25.0571C73.9598 26.1692 72.2231 26.7253 69.86 26.7253H54.3009V1.32622ZM69.885 8.58356C69.885 7.13209 69.1613 6.40636 67.714 6.40636H59.9196V11.4865H67.7187C69.1661 11.4865 69.8897 10.7608 69.8897 9.30929L69.885 8.58356ZM70.2202 18.7423C70.2202 17.2918 69.4965 16.5666 68.0492 16.5666H59.9196V21.6452H68.0492C69.4965 21.6452 70.2202 20.9195 70.2202 19.468V18.7423Z" fill="#1154FF"/>
<path d="M99.4869 12.5751L94.4212 21.6452H89.357L84.2913 12.5751V26.7253H77.7766V1.32622H84.6531L91.8899 14.7539L99.1251 1.32622H106V26.7253H99.4869V12.5751Z" fill="#1154FF"/>
<path d="M25.7908 14.014C25.8091 15.6311 25.5073 17.2357 24.9028 18.735C24.2984 20.2343 23.4034 21.5985 22.2696 22.7485C21.1357 23.8985 19.7857 24.8115 18.2976 25.4346C16.8095 26.0577 15.2129 26.3785 13.6003 26.3785C11.9877 26.3785 10.3911 26.0577 8.90297 25.4346C7.41486 24.8115 6.06481 23.8985 4.931 22.7485C3.79719 21.5985 2.90216 20.2343 2.29772 18.735C1.69329 17.2357 1.39147 15.6311 1.40975 14.014C1.41086 11.3106 2.30539 8.6839 3.95342 6.5446C5.60145 4.4053 7.91004 2.87409 10.5181 2.19046C13.1262 1.50684 15.8866 1.70935 18.3677 2.76633C20.8488 3.82331 22.9106 5.67514 24.2307 8.03219L25.3021 6.9106C23.5011 3.93079 20.6339 1.75267 17.2858 0.820881C13.9378 -0.110909 10.3614 0.273896 7.28662 1.89674C4.21188 3.51958 1.8707 6.25809 0.741008 9.55323C-0.388687 12.8484 -0.221711 16.4517 1.20785 19.6275C2.63741 22.8034 5.22175 25.3124 8.43332 26.6422C11.6449 27.9721 15.2415 28.0226 18.4889 26.7835C21.7364 25.5443 24.3898 23.1089 25.9075 19.9744C27.4251 16.84 27.6927 13.2428 26.6555 9.91721L25.4603 11.1739C25.6806 12.1044 25.7915 13.0576 25.7908 14.014Z" fill="#1154FF"/>
<path d="M13.1264 22.6678C13.0248 22.6667 12.9244 22.6449 12.8315 22.6035C12.7386 22.5622 12.6551 22.5023 12.586 22.4275L5.12839 14.2999C4.99525 14.1541 4.92531 13.9612 4.93398 13.7637C4.94265 13.5661 5.0292 13.3802 5.1746 13.2466C5.32001 13.1131 5.51234 13.043 5.70931 13.0517C5.90627 13.0604 6.09173 13.1472 6.22488 13.293L13.139 20.8331L27.6376 5.5958C27.7036 5.52006 27.7841 5.45851 27.8745 5.41486C27.9648 5.3712 28.063 5.34635 28.1632 5.34179C28.2633 5.33724 28.3634 5.35308 28.4573 5.38836C28.5512 5.42364 28.637 5.47763 28.7095 5.54707C28.782 5.61651 28.8398 5.69996 28.8793 5.79239C28.9188 5.88482 28.9392 5.98432 28.9393 6.08487C28.9394 6.18543 28.9192 6.28496 28.8798 6.37747C28.8405 6.46998 28.783 6.55355 28.7106 6.62313L13.6731 22.44C13.6024 22.5135 13.5174 22.5716 13.4233 22.6108C13.3293 22.65 13.2283 22.6694 13.1264 22.6678Z" fill="#1154FF"/>
<path d="M28.1623 7.56722C29.0222 7.56722 29.7193 6.86814 29.7193 6.00579C29.7193 5.14344 29.0222 4.44436 28.1623 4.44436C27.3024 4.44436 26.6053 5.14344 26.6053 6.00579C26.6053 6.86814 27.3024 7.56722 28.1623 7.56722Z" fill="#1154FF"/>
<path d="M5.58578 15.2628C6.44569 15.2628 7.14278 14.5637 7.14278 13.7014C7.14278 12.839 6.44569 12.14 5.58578 12.14C4.72587 12.14 4.02877 12.839 4.02877 13.7014C4.02877 14.5637 4.72587 15.2628 5.58578 15.2628Z" fill="#1154FF"/>
</svg>
